<mxfile host="app.diagrams.net" modified="2022-07-01T15:13:01.465Z" agent="5.0 (X11)" etag="Af3NQNgXwl9bu-2wnRE3" version="20.0.4" type="github">
  <diagram id="qG1McIyxLj_05EZF0b1W" name="Page-1">
    <mxGraphModel dx="1350" dy="793" grid="1" gridSize="10" guides="1" tooltips="1" connect="1" arrows="1" fold="1" page="1" pageScale="1" pageWidth="850" pageHeight="1100" math="0" shadow="0">
      <root>
        <mxCell id="0" />
        <mxCell id="1" parent="0" />
        <mxCell id="AxHS2IUWesagc9HTpHHh-1" value="" style="rounded=0;whiteSpace=wrap;html=1;" vertex="1" parent="1">
          <mxGeometry x="60" y="120" width="740" height="520" as="geometry" />
        </mxCell>
        <mxCell id="AxHS2IUWesagc9HTpHHh-2" value="&lt;font style=&quot;font-size: 32px;&quot;&gt;Nav Bar(My favourites,home,My Background)&lt;/font&gt;" style="rounded=0;whiteSpace=wrap;html=1;" vertex="1" parent="1">
          <mxGeometry x="60" y="120" width="740" height="60" as="geometry" />
        </mxCell>
        <mxCell id="AxHS2IUWesagc9HTpHHh-3" value="&lt;div&gt;Content&lt;/div&gt;&lt;div&gt;&lt;br&gt;&lt;/div&gt;" style="rounded=0;whiteSpace=wrap;html=1;fontSize=32;" vertex="1" parent="1">
          <mxGeometry x="230" y="180" width="300" height="350" as="geometry" />
        </mxCell>
      </root>
    </mxGraphModel>
  </diagram>
</mxfile>
